<svg width="151" height="188" viewBox="0 0 151 188" fill="none" xmlns="http://www.w3.org/2000/svg">
<g opacity="0.3">
<path d="M68.804 51.4358C58.6617 72.9453 58.1021 99.7582 62.3669 125.874C63.4569 132.541 65.7689 140.482 71.7924 143.469C74.3961 144.694 77.359 144.917 80.1164 144.096C89.8616 141.446 94.3281 130.504 96.4574 120.006C100.998 97.6622 98.697 71.2178 84.3215 50.2177C82.2164 47.1436 79.572 44.0048 76.2652 43.1041C71.9256 41.9228 68.384 44.9994 65.5252 47.8943" stroke="#435FB5" strokeWidth="1.5" stroke-miterlimit="10"/>
<path d="M32.38 88.2406C52.7625 109.238 81.1442 120.829 106.435 118.483C110.806 118.077 115.172 117.247 118.691 114.937C120.55 113.759 122.074 112.12 123.114 110.179C124.154 108.238 124.675 106.061 124.627 103.859C124.373 96.5469 118.053 89.9695 111.745 85.7179C97.5892 76.1743 81.2914 72.8348 65.7802 71.7538C54.9945 71.0031 44.0705 71.2787 34.7605 75.3575C32.116 76.3497 29.7995 78.0594 28.0708 80.2951C27.1968 81.5662 26.6505 83.034 26.4804 84.5677C26.3104 86.1014 26.522 87.6534 27.0963 89.0854" stroke="#435FB5" strokeWidth="1.5" stroke-miterlimit="10"/>
<path d="M35.0294 120.904C48.4227 102.421 62.2019 84.2177 77.7637 67.8312C85.4533 59.7358 93.6694 52.0265 103.54 46.8717C107.506 44.7987 112.902 43.39 116.837 46.9886C120.848 50.6559 120.442 56.8967 118.917 61.4697C116.462 68.8131 112.306 75.1162 108.039 81.2148C93.1175 102.534 75.8718 122.671 52.7472 133.859C47.7667 136.272 41.3829 138.066 36.1715 134.153C35.0991 133.421 34.283 132.371 33.838 131.15C33.533 129.659 33.8051 128.108 34.5993 126.81C36.9207 121.949 39.6964 117.32 42.8891 112.983" stroke="#435FB5" strokeWidth="1.5" stroke-miterlimit="10"/>
<path d="M75.6828 90.4205C74.2311 91.659 74.2222 94.3939 75.6307 96.2129C76.2423 97.0735 77.1374 97.6906 78.1587 97.9554C79.18 98.2203 80.2619 98.116 81.214 97.661C82.0232 97.0063 82.5754 96.0864 82.773 95.0637C82.9706 94.041 82.8009 92.9814 82.2938 92.0718C81.9238 91.241 81.2874 90.5575 80.4856 90.1296C79.9567 89.9034 79.3819 89.8058 78.8081 89.845C77.7246 89.8674 76.6622 90.1494 75.71 90.6675C74.7577 91.1855 73.9435 91.9245 73.3353 92.8225" stroke="#435FB5" strokeWidth="1.5" stroke-miterlimit="10"/>
<path d="M27.1495 88.3829C26.9686 89.575 27.2146 90.7928 27.8442 91.8208C28.4737 92.8488 29.4462 93.6207 30.5895 94.0001C31.1147 94.1233 31.6619 94.1165 32.1838 93.98C32.7057 93.8436 33.1864 93.5817 33.5842 93.2171C33.9821 92.8525 34.2851 92.3962 34.4668 91.8878C34.6486 91.3794 34.7036 90.8343 34.6272 90.2998C34.3595 87.932 31.828 85.7433 29.6937 86.0355C27.5594 86.3276 26.3945 89.0155 27.4286 91.2817" stroke="#435FB5" strokeWidth="1.5" stroke-miterlimit="10"/>
<path d="M49.1144 133.039C48.8871 133.855 48.8636 134.715 49.0462 135.542C49.2287 136.37 49.6117 137.139 50.1613 137.784C50.6744 138.436 51.347 138.945 52.1141 139.262C52.8812 139.578 53.7169 139.69 54.5403 139.589C55.2414 139.456 55.8722 139.077 56.3191 138.521C56.766 137.964 56.9996 137.266 56.9778 136.552C56.9375 135.753 56.6324 134.991 56.1107 134.385C55.589 133.78 54.8806 133.365 54.0974 133.208C53.738 133.216 53.3871 133.32 53.0808 133.509C52.7744 133.697 52.5236 133.963 52.3538 134.281C52.1841 134.598 52.1017 134.955 52.1148 135.315C52.128 135.674 52.2364 136.024 52.4288 136.328" stroke="#435FB5" strokeWidth="1.5" stroke-miterlimit="10"/>
<path d="M114.562 66.3895C112.589 68.6366 114.066 72.7675 115.913 75.8288C116.789 77.2807 118.005 78.8686 119.51 79.0045C120.105 79.013 120.684 78.8107 121.145 78.4333C121.606 78.0558 121.92 77.5276 122.03 76.9416C122.274 75.664 122.27 74.3511 122.018 73.0749C121.983 71.3494 121.325 69.695 120.166 68.4181C119.662 67.998 119.056 67.7193 118.409 67.6106C117.763 67.5019 117.099 67.5671 116.486 67.7995C115.389 68.2967 114.411 69.023 113.618 69.9297" stroke="#435FB5" strokeWidth="1.5" stroke-miterlimit="10"/>
<path d="M67.3752 46.1769C66.7579 46.2538 66.1839 46.5349 65.7444 46.9756C65.3048 47.4163 65.0249 47.9914 64.9491 48.6095C64.7676 49.9847 64.9294 51.3834 65.4199 52.6807C66.1533 54.9672 68.016 57.6436 70.1008 57.3413C71.4662 57.1432 72.1767 55.69 72.4039 54.2559C72.7046 52.0934 72.3686 49.8901 71.437 47.9159C71.1232 47.0381 70.4819 46.3161 69.6478 45.9013C69.3676 45.8191 69.0734 45.7959 68.7838 45.8333C68.4942 45.8706 68.2155 45.9678 67.9653 46.1185C65.3247 47.5158 64.873 51.2377 64.6661 54.5353" stroke="#435FB5" strokeWidth="1.5" stroke-miterlimit="10"/>
<path d="M88.0204 129.946C87.958 132.173 88.5903 134.364 89.8295 136.215C91.0687 138.065 92.8531 139.483 94.9346 140.271C97.0308 140.938 99.4887 140.502 100.184 138.55C100.457 137.535 100.46 136.468 100.194 135.452C99.8653 133.447 99.0621 131.549 97.8518 129.918C97.2852 129.123 96.5394 128.472 95.6748 128.018C94.8103 127.565 93.8512 127.321 92.8752 127.308C91.9807 127.443 91.1533 127.862 90.5153 128.504C89.8773 129.146 89.4626 129.976 89.3324 130.872C89.033 132.878 89.3071 134.927 90.1229 136.783" stroke="#435FB5" strokeWidth="1.5" stroke-miterlimit="10"/>
</g>
</svg>
