<svg width="162" height="171" viewBox="0 0 162 171" fill="none" xmlns="http://www.w3.org/2000/svg">
<g opacity="0.3">
<path d="M51.0606 73.1226L97.7078 107.814" stroke="#435FB5" strokeWidth="1.5" stroke-miterlimit="10"/>
<path d="M59.4993 61.3535C74.7505 72.152 90.0009 82.9508 105.25 93.7499" stroke="#435FB5" strokeWidth="1.5" stroke-miterlimit="10"/>
<path d="M47.9092 76.1763C47.7058 76.8366 47.7659 77.5507 48.0765 78.1672C52.7448 72.607 57.1055 66.7922 61.1385 60.7493C62.1114 59.414 62.8988 57.9514 63.4788 56.4018C61.7062 55.5066 59.9348 54.6114 58.1645 53.7162L43.1262 72.3855C42.8203 72.6872 42.6308 73.0884 42.5916 73.5177C42.6419 73.8865 42.8119 74.2283 43.075 74.4899C44.5794 76.2708 46.5903 77.5443 48.8364 78.1385" stroke="#435FB5" strokeWidth="1.5" stroke-miterlimit="10"/>
<path d="M44.6822 68.9832C43.4325 67.978 42.182 66.9736 40.9306 65.9701C42.2283 65.364 43.2573 64.2962 43.8197 62.9722C45.7457 59.6795 47.9132 56.5361 50.3041 53.5681C51.8401 54.8424 53.3762 56.1167 54.9122 57.391" stroke="#435FB5" strokeWidth="1.5" stroke-miterlimit="10"/>
<path d="M61.5622 54.0631L62.5179 51.9368C62.5289 51.7894 62.5835 51.6486 62.6748 51.5328C62.766 51.4169 62.8896 51.3312 63.0296 51.2868C63.1697 51.2424 63.3198 51.2412 63.4605 51.2834C63.6013 51.3257 63.7262 51.4094 63.8191 51.5239C73.7331 58.7821 82.6056 67.3629 91.4419 75.914C91.2448 76.932 90.6648 77.8341 89.823 78.4321L82.414 72.6902C82.7578 72.4183 83.0363 72.072 83.2289 71.6769C83.4214 71.2818 83.523 70.8481 83.5261 70.4081" stroke="#435FB5" strokeWidth="1.5" stroke-miterlimit="10"/>
<path d="M98.123 108.397C100.138 108.211 102.08 107.54 103.784 106.441C105.488 105.342 106.906 103.847 107.917 102.083C108.728 100.638 109.225 98.7676 108.344 97.3663C107.343 95.7781 105.018 95.4845 103.981 93.9191" stroke="#435FB5" strokeWidth="1.5" stroke-miterlimit="10"/>
<path d="M99.3461 109.617C105.61 111.915 112.178 113.266 118.836 113.628C119.103 113.669 119.376 113.629 119.621 113.514C120.253 113.135 119.916 112.154 119.505 111.536C115.9 106.071 112.077 100.762 108.034 95.608" stroke="#435FB5" strokeWidth="1.5" stroke-miterlimit="10"/>
<path d="M61.9371 90.6844C66.9773 93.9313 72.0175 97.1783 77.0577 100.425" stroke="#435FB5" strokeWidth="1.5" stroke-miterlimit="10"/>
<path d="M88.8697 108.624C90.2124 109.956 91.7407 111.084 93.4064 111.973" stroke="#435FB5" strokeWidth="1.5" stroke-miterlimit="10"/>
<path d="M55.6259 70.7509L60.5223 77.2416" stroke="#435FB5" strokeWidth="1.5" stroke-miterlimit="10"/>
<path d="M58.0266 64.6197C61.8017 71.7515 66.0089 78.6428 70.6246 85.2546" stroke="#435FB5" strokeWidth="1.5" stroke-miterlimit="10"/>
<path d="M62.6751 65.7417C67.5857 71.6778 71.9396 78.059 75.6808 84.8036" stroke="#435FB5" strokeWidth="1.5" stroke-miterlimit="10"/>
<path d="M71.8552 69.9902L74.6913 73.3629" stroke="#435FB5" strokeWidth="1.5" stroke-miterlimit="10"/>
</g>
</svg>
