<svg width="43" height="46" viewBox="0 0 43 46" fill="none" xmlns="http://www.w3.org/2000/svg">
<g clip-path="url(#clip0_27_1032)">
<path d="M20.7689 1.60198L0.786254 32.6194C0.684053 32.7071 0.608493 32.8206 0.567853 32.9475C0.527212 33.0745 0.52308 33.2099 0.555889 33.339C0.588698 33.4681 0.657178 33.5859 0.753838 33.6794C0.850498 33.7728 0.971606 33.8385 1.10384 33.869C8.26162 37.6515 15.4369 41.403 22.6297 45.1236C22.8085 45.2865 23.0278 45.4005 23.2657 45.4542C23.5036 45.5079 23.7518 45.4993 23.9852 45.4294C24.2187 45.3596 24.4294 45.2308 24.596 45.056C24.7626 44.8813 24.8793 44.6667 24.9345 44.4338C31.3554 32.6633 37.1528 20.5768 42.3036 8.22223L28.4606 1.25028C27.8701 0.824876 27.1655 0.577902 26.4335 0.539796C25.7015 0.50169 24.9741 0.674115 24.341 1.03582L19.8359 2.88157" stroke="#435FB5" stroke-opacity="0.25" strokeWidth="1.5" stroke-miterlimit="10"/>
<path d="M26.6954 0.473946C26.1679 3.65666 25.2379 6.76272 23.9271 9.72055C22.7464 6.83379 21.1855 4.11049 19.284 1.61985" stroke="#435FB5" stroke-opacity="0.25" strokeWidth="1.5" stroke-miterlimit="10"/>
<path d="M28.808 8.40379L33.9234 11.5899" stroke="#435FB5" stroke-opacity="0.25" strokeWidth="1.5" stroke-miterlimit="10"/>
<path d="M20.6404 12.8252L31.1041 18.544" stroke="#435FB5" stroke-opacity="0.25" strokeWidth="1.5" stroke-miterlimit="10"/>
<path d="M21.7187 17.1729C23.5447 18.4352 25.5365 19.4501 27.64 20.1903" stroke="#435FB5" stroke-opacity="0.25" strokeWidth="1.5" stroke-miterlimit="10"/>
<path d="M14.4438 23.2799C18.5607 24.9341 22.4484 27.0897 26.0149 29.6957" stroke="#435FB5" stroke-opacity="0.25" strokeWidth="1.5" stroke-miterlimit="10"/>
<path d="M16.6872 27.9257L23.0714 30.9638" stroke="#435FB5" stroke-opacity="0.25" strokeWidth="1.5" stroke-miterlimit="10"/>
<path d="M15.0914 30.1861L21.3697 33.3671" stroke="#435FB5" stroke-opacity="0.25" strokeWidth="1.5" stroke-miterlimit="10"/>
</g>
<defs>
<clipPath id="clip0_27_1032">
<rect width="43" height="46" fill="white"/>
</clipPath>
</defs>
</svg>
