
<svg xmlns="http://www.w3.org/2000/svg" width="509.375" height="351.391" viewBox="0 0 509.375 351.391">
  <g id="Group_6137" data-name="Group 6137" transform="translate(-745 -414.32)">
    <circle id="Ellipse_353" data-name="Ellipse 353" cx="28.909" cy="28.909" r="28.909" transform="translate(802.121 421.937)" fill="#f95850"/>
    <g id="Group_6122" data-name="Group 6122" transform="translate(823.47 451.013)">
      <path id="Path_6513" data-name="Path 6513" d="M173.718,81.231V246.882H316.089V99.4L297.355,81.231H173.718Zm7.6,151.928a2.45,2.45,0,1,1,2.451-2.45A2.45,2.45,0,0,1,181.314,233.159Zm0-12.007a2.45,2.45,0,1,1,2.451-2.45A2.45,2.45,0,0,1,181.314,221.151Zm0-11.762a2.45,2.45,0,1,1,2.451-2.45A2.45,2.45,0,0,1,181.314,209.39Zm0-12.007a2.45,2.45,0,1,1,2.451-2.45A2.45,2.45,0,0,1,181.314,197.382Zm0-12.007a2.45,2.45,0,1,1,2.451-2.451,2.451,2.451,0,0,1-2.451,2.451Zm0-11.762a2.451,2.451,0,1,1,2.451-2.451,2.451,2.451,0,0,1-2.451,2.451Zm0-12.007a2.451,2.451,0,1,1,2.451-2.451,2.451,2.451,0,0,1-2.451,2.451Zm0-12.008a2.45,2.45,0,1,1,2.451-2.451,2.45,2.45,0,0,1-2.451,2.451Zm0-11.762a2.451,2.451,0,1,1,2.451-2.451,2.451,2.451,0,0,1-2.451,2.451Zm0-12.007a2.45,2.45,0,1,1,2.451-2.451,2.451,2.451,0,0,1-2.451,2.451Zm0-12.007a2.45,2.45,0,1,1,2.451-2.451,2.451,2.451,0,0,1-2.451,2.451Zm0-11.517a2.451,2.451,0,1,1,2.451-2.451,2.451,2.451,0,0,1-2.451,2.451Z" transform="translate(-173.718 -81.231)" fill="#f5f6fa"/>
      <path id="Path_6514" data-name="Path 6514" d="M190.566,93.812H308.2c-.135-.153-.263-.318-.387-.49H190.566V81.231h-.49v12.09H173.718v.49h16.358v11.434H173.718v.49h16.358v11.434H173.718v.49h16.358v11.434H173.718v.49h16.358v11.434H173.718v.49h16.358v11.434H173.718v.49h16.358v11.434H173.718v.49h16.358V176.79H173.718v.49h16.358v11.434H173.718v.49h16.358v11.434H173.718v.49h16.358v11.434H173.718v.49h16.358v11.434H173.718v.49h16.358V236.41H173.718v.491h16.358v9.98h.49V236.9H316.089v-.491H190.566V224.978H316.089v-.49H190.566V213.054H316.089v-.49H190.566V201.13H316.089v-.49H190.566V189.206H316.089v-.49H190.566V177.282H316.089v-.49H190.566V165.357H316.089v-.49H190.566V153.433H316.089v-.49H190.566V141.508H316.089v-.49H190.566V129.584H316.089v-.49H190.566V117.66H316.089v-.49H190.566V105.736H316.089v-.49H190.566Z" transform="translate(-173.718 -81.231)" fill="#8b8692" opacity="0.5"/>
      <path id="Path_6515" data-name="Path 6515" d="M447.428,81.231" transform="translate(-323.791 -81.231)" fill="#3f3d56"/>
      <path id="Path_6516" data-name="Path 6516" d="M442.495,101.8s20.842-2.2,20.872-2.361c-18.75-18.123-18.682-18.175-18.689-18.176" transform="translate(-321.086 -81.279)" fill="#3f3d56" opacity="0.2"/>
      <path id="Path_6517" data-name="Path 6517" d="M447.229,81.22l.2,18.482,18.625-.248Z" transform="translate(-323.653 -81.249)" fill="#2680eb"/>
    </g>
    <path id="Path_6518" data-name="Path 6518" d="M794.748,94.074l-20.715,164.35,141.253,17.8,18.443-146.32-16.314-20.373ZM783.286,245.759a2.45,2.45,0,1,1,2.738-2.125A2.451,2.451,0,0,1,783.286,245.759Zm1.5-11.913a2.451,2.451,0,1,1,2.738-2.125A2.451,2.451,0,0,1,784.787,233.846Zm1.471-11.67A2.451,2.451,0,1,1,789,220.051,2.451,2.451,0,0,1,786.258,222.176Zm1.5-11.913a2.45,2.45,0,1,1,2.738-2.124A2.451,2.451,0,0,1,787.76,210.263Zm1.5-11.912A2.45,2.45,0,1,1,792,196.226a2.451,2.451,0,0,1-2.738,2.125Zm1.471-11.67a2.451,2.451,0,1,1,2.738-2.125,2.45,2.45,0,0,1-2.738,2.125Zm1.5-11.913a2.451,2.451,0,1,1,2.738-2.125,2.45,2.45,0,0,1-2.738,2.125Zm1.5-11.913a2.45,2.45,0,1,1,2.738-2.125,2.451,2.451,0,0,1-2.738,2.125Zm1.471-11.67a2.451,2.451,0,1,1,2.738-2.125,2.451,2.451,0,0,1-2.738,2.125Zm1.5-11.913a2.451,2.451,0,1,1,2.738-2.125,2.451,2.451,0,0,1-2.738,2.125Zm1.5-11.913a2.451,2.451,0,1,1,2.738-2.125,2.451,2.451,0,0,1-2.738,2.125Zm1.44-11.427a2.45,2.45,0,1,1,2.738-2.124,2.451,2.451,0,0,1-2.738,2.124Z" transform="translate(320.605 362.74)" fill="#f5f6fa"/>
    <path id="Path_6519" data-name="Path 6519" d="M811.4,111.145l116.707,14.71a6.223,6.223,0,0,1-.323-.535L811.464,110.659l1.512-12-.487-.061-1.512,12-16.23-2.046-.061.486,16.23,2.046-1.43,11.345-16.23-2.046-.061.486,16.23,2.045L808,134.259l-16.23-2.046-.061.486,16.23,2.045-1.43,11.344-16.23-2.045-.061.486,16.23,2.046-1.43,11.344-16.23-2.046-.061.486,16.23,2.045-1.43,11.345-16.23-2.046-.061.486,16.229,2.046-1.43,11.344-16.23-2.046-.062.486,16.23,2.046-1.43,11.345-16.23-2.046-.062.486,16.23,2.046-1.43,11.344-16.23-2.046-.061.486,16.23,2.046-1.43,11.344-16.23-2.046-.062.486,16.23,2.045-1.43,11.345-16.23-2.045-.062.486L796,229.39l-1.429,11.344-16.23-2.046-.061.486,16.23,2.046-1.43,11.344-16.23-2.045-.061.486,16.229,2.046-1.248,9.9.486.061,1.248-9.9,124.536,15.7.061-.486-124.536-15.7L795,241.282l124.536,15.7.062-.486L795.06,240.8l1.43-11.344,124.537,15.7.061-.486-124.536-15.7,1.43-11.345,124.536,15.7.061-.486-124.536-15.7,1.43-11.344,124.537,15.7.062-.486L799.534,205.3l1.43-11.344,124.536,15.7.061-.486-124.536-15.7,1.43-11.345,124.537,15.7.061-.486-124.537-15.7,1.43-11.344L928.483,186l.061-.486-124.536-15.7,1.43-11.345,124.536,15.7.061-.486L805.5,157.981l1.43-11.344,124.537,15.7.061-.486-124.537-15.7,1.43-11.344,124.536,15.7.061-.486-124.536-15.7,1.43-11.345,124.537,15.7.061-.486-124.537-15.7Z" transform="translate(319.092 360.258)" fill="#8b8692" opacity="0.5"/>
    <path id="Path_6520" data-name="Path 6520" d="M1080.55,148.046s21.168.763,21.219.614l-16.278-20.3h-.01l-.018,0" transform="translate(152.544 343.946)" fill="#3f3d56" opacity="0.2"/>
    <path id="Path_6521" data-name="Path 6521" d="M1088.69,128.276l-2.27,18.056,18.63,2.35Z" transform="translate(149.325 343.974)" fill="#2680eb"/>
    <path id="Path_6522" data-name="Path 6522" d="M1091.45,128.3" transform="translate(146.568 343.974)" fill="#3f3d56"/>
    <path id="Path_6523" data-name="Path 6523" d="M271.969,236.587,272.9,179.5l38.6-70.626-38.459,61.671.417-25.669,26.607-51.1-26.5,44.3h0l.75-46.167,28.491-40.68-28.373,33.42L274.906,0l-2.945,112.067.242-4.623L243.236,63.105l28.5,53.213-2.7,51.561-.08-1.368-33.394-46.66,33.293,51.494-.337,6.448-.061.1.028.53L261.64,309.235h9.149l1.1-67.568L305.1,190.3Z" transform="translate(615.842 414.32)" fill="#3f3d56"/>
    <path id="Path_6524" data-name="Path 6524" d="M914.312,317.768l.759-46.729,31.6-57.811-31.481,50.48.341-21.011,21.781-41.826-21.69,36.265h0l.614-37.79,23.321-33.3L916.332,193.4l.384-69.294-2.411,91.732.2-3.784-23.711-36.293,23.331,43.558-2.209,42.2-.066-1.12-27.334-38.193,27.252,42.151-.276,5.278-.049.079.023.433-5.605,107.078h7.489l.9-55.308,27.183-42.047Z" transform="translate(260.029 346.272)" fill="#3f3d56"/>
    <ellipse id="Ellipse_354" data-name="Ellipse 354" cx="250.514" cy="12.664" rx="250.514" ry="12.664" transform="translate(745 709.035)" fill="#3f3d56"/>
    <ellipse id="Ellipse_355" data-name="Ellipse 355" cx="42.907" cy="2.169" rx="42.907" ry="2.169" transform="translate(1105.219 740.452)" fill="#3f3d56"/>
    <ellipse id="Ellipse_356" data-name="Ellipse 356" cx="42.907" cy="2.169" rx="42.907" ry="2.169" transform="translate(949.955 761.373)" fill="#3f3d56"/>
    <ellipse id="Ellipse_357" data-name="Ellipse 357" cx="98.027" cy="4.955" rx="98.027" ry="4.955" transform="translate(777.04 741.045)" fill="#3f3d56"/>
    <path id="Path_6527" data-name="Path 6527" d="M487.223,564.59l11.091-15.5-11.118,17.2-.029,1.779c-.776-.016-1.544-.053-2.3-.1l1.2-22.848-.01-.177.02-.033.113-2.158-11.146-17.241,11.181,15.623.026.459.9-17.263L477.6,506.509l9.659,14.785.94-35.79,0-.122v.118l-.157,28.222,9.5-11.189-9.539,13.62-.252,15.456,8.87-14.834-8.907,17.108-.141,8.592,12.877-20.646-12.925,23.645Z" transform="translate(484.543 148.189)" fill="#3f3d56"/>
    <g id="Group_6136" data-name="Group 6136" transform="translate(-534 275)">
      <g id="Group_6125" data-name="Group 6125" transform="translate(-2932.039 -2420.023)">
        <circle id="Ellipse_363" data-name="Ellipse 363" cx="35.685" cy="35.685" r="35.685" transform="translate(4468.151 2772.038)" fill="#2f2e41"/>
        <rect id="Rectangle_1079" data-name="Rectangle 1079" width="10.841" height="19.423" transform="translate(4512.567 2854.663) rotate(162.915)" fill="#2f2e41"/>
        <rect id="Rectangle_1080" data-name="Rectangle 1080" width="10.841" height="19.423" transform="matrix(-0.956, 0.294, -0.294, -0.956, 4533.318, 2848.268)" fill="#2f2e41"/>
        <ellipse id="Ellipse_364" data-name="Ellipse 364" cx="3.388" cy="9.034" rx="3.388" ry="9.034" transform="translate(4503.303 2861.284) rotate(-107.085)" fill="#2f2e41"/>
        <ellipse id="Ellipse_365" data-name="Ellipse 365" cx="3.388" cy="9.034" rx="3.388" ry="9.034" transform="translate(4523.87 2854.471) rotate(-107.085)" fill="#2f2e41"/>
        <circle id="Ellipse_366" data-name="Ellipse 366" cx="12.196" cy="12.196" r="12.196" transform="translate(4489.849 2786.626)" fill="#fff"/>
        <circle id="Ellipse_367" data-name="Ellipse 367" cx="4.065" cy="4.065" r="4.065" transform="translate(4498.039 2795.023)" fill="#3f3d56"/>
        <g id="Group_6123" data-name="Group 6123" transform="translate(4492.99 2783.91)">
          <path id="Path_6528" data-name="Path 6528" d="M707.515,512.7l-19.039,48.874,42,16.364,16.95-43.512-3.438-7.515Zm-15.221,45.7a.776.776,0,1,1,1.005-.441A.777.777,0,0,1,692.294,558.4Zm1.38-3.543a.776.776,0,1,1,1-.442A.776.776,0,0,1,693.674,554.853Zm1.352-3.47a.776.776,0,1,1,1.005-.441A.776.776,0,0,1,695.026,551.383Zm1.38-3.543a.776.776,0,1,1,1-.441A.775.775,0,0,1,696.406,547.84Zm1.38-3.542a.776.776,0,1,1,1.005-.442.776.776,0,0,1-1.005.442Zm1.352-3.47a.776.776,0,1,1,1.005-.442.777.777,0,0,1-1.005.442Zm1.38-3.543a.776.776,0,1,1,1.005-.441.775.775,0,0,1-1.005.441Zm1.38-3.543a.776.776,0,1,1,1-.442.776.776,0,0,1-1,.442Zm1.352-3.47a.776.776,0,1,1,1.005-.441.777.777,0,0,1-1.005.441Zm1.38-3.542a.776.776,0,1,1,1-.442.776.776,0,0,1-1,.442Zm1.38-3.543a.776.776,0,1,1,1.005-.441.776.776,0,0,1-1.005.441Zm1.324-3.4a.776.776,0,1,1,1.005-.442.777.777,0,0,1-1.005.442Z" transform="translate(-688.475 -512.698)" fill="#d9dce2"/>
          <path id="Path_6529" data-name="Path 6529" d="M712.433,520.629l34.705,13.52a1.94,1.94,0,0,1-.058-.189L712.49,520.485l1.389-3.567-.144-.056-1.39,3.567-4.826-1.88-.057.145,4.827,1.88-1.314,3.374-4.827-1.88-.057.144,4.827,1.881-1.314,3.373-4.827-1.88-.056.145,4.826,1.88-1.314,3.373-4.827-1.88-.056.145,4.826,1.88-1.314,3.374-4.827-1.88-.056.145,4.826,1.88-1.314,3.374-4.827-1.88-.056.144,4.827,1.881-1.314,3.374-4.827-1.88-.056.144,4.826,1.881-1.314,3.373-4.827-1.88-.056.145,4.827,1.88-1.314,3.373-4.827-1.88-.056.145,4.826,1.88-1.313,3.373-4.827-1.88-.057.144,4.827,1.88-1.314,3.374-4.827-1.88-.056.144,4.827,1.881-1.314,3.373-4.827-1.88-.056.144,4.826,1.881-1.314,3.374-4.826-1.88-.057.145,4.826,1.88-1.147,2.944.145.056,1.147-2.944,37.034,14.427.056-.145L696.044,562.7l1.314-3.374,37.033,14.427.057-.145-37.033-14.427,1.313-3.373,37.034,14.427.057-.144-37.034-14.427,1.314-3.374,37.033,14.427.057-.144-37.033-14.427,1.314-3.373L738.5,563.2l.056-.144-37.035-14.427,1.314-3.373,37.033,14.427.056-.145L702.9,545.111l1.314-3.373,37.034,14.427.056-.144-37.034-14.427,1.314-3.374,37.034,14.427.056-.144-37.033-14.427,1.314-3.374,37.033,14.427.057-.145-37.034-14.427,1.314-3.373,37.034,14.427.056-.145-37.033-14.427,1.314-3.373,37.033,14.427.056-.145-37.033-14.427,1.314-3.373L748.1,538.574l.056-.145L711.118,524Z" transform="translate(-689.868 -514.981)" fill="#8b8692"/>
          <path id="Path_6530" data-name="Path 6530" d="M811.38,544.158" transform="translate(-755.863 -529.947)" fill="#3f3d56"/>
        </g>
        <ellipse id="Ellipse_368" data-name="Ellipse 368" cx="17.842" cy="5.601" rx="17.842" ry="5.601" transform="translate(4503.702 2834.162) rotate(-154.627)" fill="#2f2e41"/>
        <path id="Path_6536" data-name="Path 6536" d="M804.447,549.831s6.487,1.92,6.514,1.879l-3.426-7.571h0l-.005,0" transform="translate(3740.929 2253.976)" fill="#3f3d56" opacity="0.3"/>
        <path id="Path_6537" data-name="Path 6537" d="M808.715,544.128l-2.153,5.387,5.606,2.145Z" transform="translate(3739.769 2253.982)" fill="#2680eb"/>
        <ellipse id="Ellipse_369" data-name="Ellipse 369" cx="5.5" cy="18.5" rx="5.5" ry="18.5" transform="translate(4521.003 2760.004) rotate(70)" fill="#136ad2"/>
        <path id="Path_6526" data-name="Path 6526" d="M614.151,471.993c-6.545-11.489-1.571-26.658,11.109-33.883s29.061-1.529,33.58,8.025-3.812,10.875-17.937,19.438S620.7,483.481,614.151,471.993Z" transform="translate(3847.847 2316.178)" fill="#2680eb"/>
      </g>
      <circle id="Ellipse_385" data-name="Ellipse 385" cx="1.5" cy="1.5" r="1.5" transform="translate(1566 375)" fill="#fff"/>
    </g>
  </g>
</svg>
