<svg
  xmlns="http://www.w3.org/2000/svg"
  width="18"
  height="19"
  viewBox="0 0 18 19"
  fill="none">
  <path
    d="M13.0807 9.97527C13.0807 8.60178 13.8116 7.40359 14.8958 6.76901C14.3296 6.05541 13.478 5.41589 12.5392 5.22823C11.2591 4.97205 10.5288 5.3986 10.0564 5.5696C9.58404 5.74059 8.95658 5.8943 8.95658 5.8943C8.95658 5.8943 8.32972 5.74059 7.85672 5.5696C7.38493 5.3986 6.6547 4.97143 5.37454 5.22761C4.09438 5.48379 2.9765 6.58073 2.52213 7.55854C1.64585 9.44563 2.00646 11.8198 2.6255 13.5272C3.24395 15.2353 4.8793 17.6218 6.14744 17.8137C7.04956 17.9502 7.60791 17.31 8.95658 17.1477C10.3053 17.31 10.8636 17.9502 11.7657 17.8137C13.0339 17.6218 14.6692 15.2353 15.2877 13.5272C15.3027 13.4852 15.3183 13.442 15.3333 13.3988C14.0129 12.8544 13.0807 11.5265 13.0807 9.97527ZM8.63624 4.91587C8.63624 4.91587 9.89055 5.08687 11.0295 3.75844C12.1684 2.43001 11.8444 1.17318 11.8444 1.17318C11.8444 1.17318 10.5901 1.00219 9.45121 2.33062C8.31229 3.65905 8.63624 4.91587 8.63624 4.91587Z"
    fill="white" />
</svg>
