<svg width="45" height="45" viewBox="0 0 45 45" fill="none" xmlns="http://www.w3.org/2000/svg">
<mask id="mask0_766_1191" style="mask-type:luminance" maskUnits="userSpaceOnUse" x="0" y="0" width="45" height="45">
<path d="M45 0H0V45H45V0Z" fill="white"/>
</mask>
<g mask="url(#mask0_766_1191)">
<path d="M35.2961 12.793V27.7954C35.2961 29.2576 34.1108 30.4428 32.6486 30.4428H12.3513C10.8891 30.4428 9.70378 29.2576 9.70378 27.7954V12.793H6.17383V33.9729H38.826V12.793H35.2961Z" fill="#9DC4DF"/>
<path d="M44.1211 33.0936H43.235V11.9102C43.235 9.96578 41.653 8.38384 39.7085 8.38384H36.175V6.60449C36.175 4.66597 34.5979 3.08887 32.6594 3.08887H12.3405C10.402 3.08887 8.82492 4.66597 8.82492 6.60449V8.38384H5.29137C3.34687 8.38384 1.76493 9.96578 1.76493 11.9102V33.0936H0.878906C0.393486 33.0936 0 33.4871 0 33.9725V38.3957C0 40.3343 1.57711 41.9114 3.51562 41.9114H41.4844C43.4229 41.9114 45 40.3343 45 38.3957V33.9725C45 33.4871 44.6065 33.0936 44.1211 33.0936ZM10.5827 11.9066H34.4173V27.8058C34.4173 28.7751 33.6287 29.5636 32.6595 29.5636H12.3405C11.3713 29.5636 10.5827 28.7751 10.5827 27.8058V11.9066ZM10.5827 6.60449C10.5827 5.63523 11.3713 4.84668 12.3405 4.84668H32.6595C33.6287 4.84668 34.4173 5.63523 34.4173 6.60449V10.1488H10.5827V6.60449ZM3.52283 11.9102C3.52283 10.9349 4.31622 10.1416 5.29146 10.1416H8.82501V27.8058C8.82501 29.7443 10.4021 31.3214 12.3406 31.3214H32.6595C34.5981 31.3214 36.1752 29.7443 36.1752 27.8058V10.1416H39.7087C40.684 10.1416 41.4773 10.9349 41.4773 11.9102V33.0936H3.52283V11.9102ZM43.2422 38.3957C43.2422 39.365 42.4536 40.1536 41.4844 40.1536H3.51562C2.54637 40.1536 1.75781 39.365 1.75781 38.3957V34.8514H43.2422V38.3957Z" fill="#435FB5"/>
<path d="M13.2339 8.37696H14.1164C14.6018 8.37696 14.9953 7.98338 14.9953 7.49805C14.9953 7.01272 14.6018 6.61914 14.1164 6.61914H13.2339C12.7484 6.61914 12.355 7.01272 12.355 7.49805C12.355 7.98338 12.7484 8.37696 13.2339 8.37696Z" fill="#435FB5"/>
<path d="M17.6462 8.37696H18.5287C19.0142 8.37696 19.4077 7.98338 19.4077 7.49805C19.4077 7.01272 19.0142 6.61914 18.5287 6.61914H17.6462C17.1608 6.61914 16.7673 7.01272 16.7673 7.49805C16.7673 7.98338 17.1608 8.37696 17.6462 8.37696Z" fill="#435FB5"/>
<path d="M14.9526 17.054L17.6001 18.819C18.0021 19.0871 18.5485 18.9809 18.8189 18.5753C19.0882 18.1714 18.979 17.6257 18.5751 17.3565L17.0246 16.3227L18.5751 15.289C18.979 15.0198 19.0882 14.4742 18.8189 14.0703C18.5496 13.6663 18.0039 13.5572 17.6001 13.8265L14.9526 15.5915C14.7081 15.7544 14.5613 16.0289 14.5613 16.3227C14.5613 16.6166 14.7081 16.891 14.9526 17.054Z" fill="#435FB5"/>
<path d="M26.4249 15.289L27.9755 16.3227L26.4249 17.3564C26.021 17.6256 25.9119 18.1714 26.1812 18.5752C26.4512 18.9802 26.9972 19.0875 27.3999 18.8189L30.0474 17.0539C30.568 16.7069 30.5696 15.9395 30.0474 15.5913L27.3999 13.8264C26.9961 13.5571 26.4505 13.6663 26.1811 14.0701C25.9119 14.4742 26.021 15.0198 26.4249 15.289Z" fill="#435FB5"/>
<path d="M21.6168 18.9668C21.9392 18.9668 22.2496 18.7888 22.4036 18.4809L24.1686 14.9509C24.3857 14.5167 24.2097 13.9888 23.7755 13.7717C23.3414 13.5545 22.8134 13.7306 22.5963 14.1647L20.8313 17.6947C20.537 18.2835 20.9711 18.9668 21.6168 18.9668Z" fill="#435FB5"/>
<path d="M13.2339 24.2617H20.2939C20.7793 24.2617 21.1728 23.8682 21.1728 23.3828C21.1728 22.8974 20.7793 22.5039 20.2939 22.5039H13.2339C12.7484 22.5039 12.355 22.8974 12.355 23.3828C12.355 23.8682 12.7484 24.2617 13.2339 24.2617Z" fill="#435FB5"/>
<path d="M13.2339 27.792H23.8238C24.3092 27.792 24.7027 27.3984 24.7027 26.9131C24.7027 26.4277 24.3092 26.0342 23.8238 26.0342H13.2339C12.7484 26.0342 12.355 26.4277 12.355 26.9131C12.355 27.3984 12.7484 27.792 13.2339 27.792Z" fill="#435FB5"/>
<path d="M26.4749 26.9131C26.4749 27.3984 26.8683 27.792 27.3538 27.792H31.7662C32.2516 27.792 32.6451 27.3984 32.6451 26.9131C32.6451 26.4277 32.2516 26.0342 31.7662 26.0342H27.3538C26.8683 26.0342 26.4749 26.4277 26.4749 26.9131Z" fill="#435FB5"/>
<path d="M29.115 23.3828C29.115 22.8974 28.7216 22.5039 28.2361 22.5039H23.8237C23.3382 22.5039 22.9448 22.8974 22.9448 23.3828C22.9448 23.8682 23.3382 24.2617 23.8237 24.2617H28.2361C28.7216 24.2617 29.115 23.8682 29.115 23.3828Z" fill="#435FB5"/>
</g>
</svg>
