<svg
  xmlns="http://www.w3.org/2000/svg"
  width="40"
  height="40"
  viewBox="0 0 40 40"
  fill="none">
  <rect
    width="40"
    height="40"
    rx="5"
    fill="#1260BC" />
  <path
    d="M25.2054 10.084H21.542C21.5337 10.0839 21.5253 10.0843 21.517 10.0851C17.8183 10.0968 17.3353 12.6809 17.3333 14.9395C17.3282 14.9609 17.3256 14.9828 17.3255 15.0048V16.5904H14.7942C14.7206 16.5904 14.65 16.6196 14.5979 16.6717C14.5459 16.7238 14.5166 16.7945 14.5166 16.8682V20.7784C14.5166 20.8521 14.5459 20.9228 14.5979 20.9749C14.65 21.0269 14.7206 21.0562 14.7942 21.0562H17.3255V29.637C17.3255 29.7107 17.3548 29.7814 17.4069 29.8335C17.4589 29.8856 17.5295 29.9148 17.6032 29.9148H21.2974C21.371 29.9148 21.4417 29.8856 21.4937 29.8335C21.5458 29.7814 21.575 29.7107 21.575 29.637V21.0565H25.2052C25.2788 21.0565 25.3494 21.0272 25.4015 20.9751C25.4535 20.923 25.4828 20.8524 25.4828 20.7787V16.8684C25.4828 16.7948 25.4535 16.7241 25.4015 16.672C25.3494 16.6199 25.2788 16.5907 25.2052 16.5907H21.2974V14.4887H25.2052C25.2788 14.4887 25.3494 14.4594 25.4015 14.4074C25.4535 14.3553 25.4828 14.2846 25.4828 14.2109V10.3618C25.4828 10.3253 25.4757 10.2892 25.4617 10.2555C25.4478 10.2218 25.4274 10.1912 25.4016 10.1654C25.3759 10.1396 25.3453 10.1191 25.3116 10.1051C25.278 10.0912 25.2419 10.084 25.2054 10.084Z"
    fill="white" />
</svg>
