<svg width="39" height="22" viewBox="0 0 39 22" fill="none" xmlns="http://www.w3.org/2000/svg">
<path d="M19.2255 11.2713C18.3299 11.0623 17.2033 10.8607 16.1127 10.527C11.6674 9.17034 7.233 7.78068 2.79855 6.38368C2.51328 6.29568 2.27855 6.05368 2.01855 5.88501C2.27855 5.70534 2.51328 5.45234 2.79855 5.36068C5.86439 4.39268 8.93383 3.45034 12.0069 2.50801C14.0038 1.89568 15.9936 1.25401 18.0049 0.707675C19.2074 0.381342 20.4388 0.491342 21.6377 0.861675C25.9999 2.21468 30.3586 3.56768 34.7208 4.91701C35.3058 5.09668 35.9016 5.25068 36.4794 5.45968C36.6708 5.52934 36.8116 5.73468 36.9741 5.87768C36.7936 6.02068 36.6383 6.22968 36.4324 6.29568C33.7783 7.14268 31.1205 7.97501 28.4591 8.79268C26.0722 9.52968 23.6852 10.263 21.2874 10.956C20.7133 11.1283 20.0886 11.1467 19.2255 11.2713Z" fill="white"/>
<path d="M30.1274 11.088C30.1274 12.6647 30.1274 14.1643 30.1274 15.6603C30.1274 16.5587 30.0985 17.457 30.1383 18.3517C30.1599 18.832 29.9721 19.1253 29.611 19.3893C28.5169 20.1923 27.2313 20.4893 25.9638 20.801C23.1724 21.4903 20.3196 21.56 17.4705 21.4207C15.0799 21.3033 12.7146 20.933 10.4721 19.9943C10.3783 19.954 10.288 19.9063 10.1905 19.8697C9.25159 19.481 8.77492 18.8943 8.8327 17.743C8.94103 15.5613 8.8652 13.3723 8.8652 11.088C9.23353 11.1687 9.5477 11.2127 9.84742 11.308C12.8302 12.2613 15.8058 13.244 18.7994 14.1643C19.2399 14.3 19.7924 14.289 20.233 14.1497C23.223 13.2257 26.1985 12.2467 29.1813 11.2897C29.4702 11.2017 29.7699 11.165 30.1274 11.088Z" fill="white"/>
<path d="M5.06994 17.1893C5.07355 17.3653 5.06272 17.5377 5.05189 17.7137C5.04105 17.886 5.05911 18.0767 4.99411 18.238C4.98327 18.2637 4.96883 18.293 4.95439 18.3187C4.93633 18.3517 4.91827 18.3883 4.88939 18.414C4.86772 18.4323 4.84244 18.4507 4.81716 18.4617C4.66911 18.5387 4.51383 18.5607 4.34772 18.5607C4.18161 18.5607 4.01189 18.5753 3.84216 18.5753C3.80244 18.5753 3.75911 18.5753 3.71939 18.5753C3.39077 18.5753 3.05855 18.5607 2.72994 18.5423C2.37605 18.524 2.33633 18.271 2.32189 18.1097C2.24605 17.2333 2.28216 16.39 2.8455 15.62C3.07661 15.301 3.15966 14.8097 3.16689 14.3953C3.19939 12.5253 3.18133 10.6517 3.18133 8.72667C4.19244 8.88067 4.19244 8.88067 4.19244 9.75334C4.19244 11.1063 4.23577 12.463 4.178 13.816C4.14189 14.6887 4.32966 15.4623 4.79189 16.17C4.9905 16.4743 5.06633 16.83 5.06994 17.1893Z" fill="white"/>
<path d="M3.71943 18.579C3.39081 18.579 3.05859 18.5717 2.72998 18.546C3.0622 18.5607 3.39081 18.579 3.71943 18.579Z" fill="white"/>
</svg>
