<svg width="45" height="45" viewBox="0 0 45 45" fill="none" xmlns="http://www.w3.org/2000/svg">
<g clip-path="url(#clip0_766_848)">
<mask id="mask0_766_848" style="mask-type:luminance" maskUnits="userSpaceOnUse" x="0" y="0" width="45" height="45">
<path d="M45 0H0V45H45V0Z" fill="white"/>
</mask>
<g mask="url(#mask0_766_848)">
<path fill-rule="evenodd" clip-rule="evenodd" d="M9.36475 33.7443C9.75077 40.2794 35.2896 40.2714 35.666 33.7441C35.666 31.3858 31.3017 29.4117 25.453 28.9083L25.1521 32.5193C25.0719 33.4826 24.361 34.2771 23.3943 34.2771H21.6364C20.6698 34.2771 19.9589 33.4828 19.8786 32.5193C19.7784 31.3156 19.678 30.1119 19.5777 28.9082C13.7291 29.4116 9.36475 31.3857 9.36475 33.7443Z" fill="#FFBEBC"/>
<path d="M39.4536 27.4429C36.1765 25.7057 31.6768 24.5208 26.7365 24.0889L26.8505 22.721C27.9044 22.3755 28.6677 21.3825 28.6677 20.2146V13.1834C28.6677 10.8202 27.3283 8.76394 25.3689 7.73379C28.442 5.13225 26.592 8.78899e-05 22.5154 0C18.4388 0.00017578 16.5887 5.13295 19.6619 7.73387C17.7025 8.76403 16.3631 10.8202 16.3631 13.1835V20.2147C16.3631 21.3826 17.1263 22.3755 18.1802 22.721L18.2942 24.089C11.2271 24.7468 0.48111 27.4028 0.0153809 34.4529C0.616548 42.5785 14.5313 45.0177 22.5153 44.9999C28.4115 44.9998 33.9685 43.9669 38.1625 42.0915C46.5366 38.5244 47.4752 31.6021 39.4536 27.4429ZM19.8787 4.3945C19.8787 2.94062 21.0616 1.7578 22.5154 1.7578C26.0085 1.89034 26.0077 6.89918 22.5154 7.03119C21.0616 7.03119 19.8787 5.84837 19.8787 4.3945ZM18.1209 20.2147V13.1835C18.341 7.36377 26.689 7.36122 26.9099 13.1836V20.2148C26.9099 20.6994 26.5157 21.0937 26.031 21.0937C25.5739 21.0937 25.1931 21.4441 25.1552 21.8995L24.2763 32.4463C24.2369 32.9193 23.9213 33.3982 23.3943 33.3982H21.6365C21.1096 33.3982 20.794 32.9193 20.7546 32.4462L19.8757 21.8994C19.8377 21.4439 19.4569 21.0936 18.9999 21.0936C18.5151 21.0936 18.1209 20.6993 18.1209 20.2147ZM37.445 40.4869C29.6618 44.1331 15.3689 44.1332 7.58587 40.4868C3.89194 38.8351 1.77335 36.6359 1.77335 34.453C2.25736 28.7493 12.47 26.3567 18.4402 25.8407L19.0028 32.5923C19.1246 34.0538 20.2569 35.156 21.6365 35.156H23.3943C24.774 35.156 25.9062 34.0537 26.0279 32.5923L26.5906 25.8407C31.2978 26.2526 35.5575 27.3673 38.6302 28.9961C45.3961 32.5306 44.4241 37.4205 37.445 40.4869Z" fill="#435FB5"/>
</g>
</g>
<defs>
<clipPath id="clip0_766_848">
<rect width="45" height="45" fill="white"/>
</clipPath>
</defs>
</svg>
