<svg
  xmlns="http://www.w3.org/2000/svg"
  width="18"
  height="19"
  viewBox="0 0 18 19"
  fill="none">
  <path
    fill-rule="evenodd"
    clip-rule="evenodd"
    d="M13.6875 11.9939L15.153 11.1798C16.4448 10.4621 16.4448 8.60429 15.153 7.88665L13.6874 7.07244L12.9542 7.80565L12.9428 7.81686L11.1518 9.53321L12.9428 11.2495L12.9542 11.2608L13.6875 11.9939ZM10.0629 10.5768L11.8944 12.3319L12.3175 12.7551L5.04837 16.7935C4.52892 17.082 3.96028 17.0958 3.47208 16.9111L3.90725 16.4759L10.0629 10.5768ZM10.0629 8.48961L11.8944 6.73445L12.3175 6.31134L5.04837 2.27295C4.52893 1.98437 3.96029 1.97059 3.47208 2.15534L3.90725 2.5905L10.0629 8.48961ZM2.38871 3.20302L2.8474 3.66171L2.85885 3.67292L8.97395 9.53321L2.85885 15.3935L2.8474 15.4047L2.38871 15.8634C2.29977 15.6457 2.25 15.4049 2.25 15.1469V3.91952C2.25 3.66156 2.29977 3.42065 2.38871 3.20302Z"
    fill="#333333" />
</svg>
