<svg width="45" height="45" viewBox="0 0 45 45" fill="none" xmlns="http://www.w3.org/2000/svg">
<g clip-path="url(#clip0_766_419)">
<mask id="mask0_766_419" style="mask-type:luminance" maskUnits="userSpaceOnUse" x="0" y="0" width="45" height="45">
<path d="M45 0H0V45H45V0Z" fill="white"/>
</mask>
<g mask="url(#mask0_766_419)">
<path d="M35.9345 15.7987C35.4491 15.7987 35.0556 16.1922 35.0556 16.6776V34.6672L14.1495 28.8014V19.5359L26.989 15.9334C27.4563 15.8023 27.7289 15.3171 27.5978 14.8497C27.4667 14.3824 26.9813 14.1099 26.5141 14.2409L13.1497 17.9908H2.99856C1.34517 17.9908 0 19.3358 0 20.9892V27.3481C0 29.0015 1.34517 30.3466 2.99856 30.3466H4.41668L5.55645 39.1284C5.70111 40.2431 6.34887 41.1176 7.33368 41.5277C9.48779 42.4194 11.9849 40.7897 11.6179 38.3417L10.5803 30.3466H13.1496L35.697 36.6729C35.9599 36.7469 36.2459 36.6938 36.4655 36.5271C36.6847 36.3609 36.8134 36.1017 36.8134 35.8267V16.6776C36.8134 16.1922 36.4199 15.7987 35.9345 15.7987ZM1.75781 27.3481V20.9892C1.75781 20.3051 2.31442 19.7486 2.99856 19.7486H12.3917V28.5889H2.99856C2.31442 28.5888 1.75781 28.0323 1.75781 27.3481ZM9.87469 38.568C9.94034 39.0736 9.80016 39.4627 9.458 39.7242C9.06715 40.023 8.47143 40.0973 8.00938 39.9049C7.6028 39.7356 7.364 39.3983 7.29967 38.9021L6.18926 30.3466H8.80769L9.87469 38.568Z" fill="#435FB5"/>
<path fill-rule="evenodd" clip-rule="evenodd" d="M26.6164 3.22559H43.2066C44.1931 3.22559 45.0001 4.03295 45.0001 5.01908V15.7803C45.0001 16.766 44.1923 17.5738 43.2066 17.5738H32.8938L31.1002 19.3674L29.3066 17.5738H26.6163C25.6303 17.5738 24.8228 16.7668 24.8228 15.7803V5.01908C24.8229 4.03269 25.6299 3.22559 26.6164 3.22559Z" fill="#FCB6AF"/>
<path d="M40.292 7.6914H29.5308C28.3659 7.64816 28.3668 5.97639 29.5308 5.93359H40.292C41.4569 5.97683 41.456 7.6486 40.292 7.6914Z" fill="#435FB5"/>
<path d="M40.292 11.2783H29.5308C28.3659 11.235 28.3668 9.56332 29.5308 9.52051H40.292C41.4569 9.56376 41.456 11.2355 40.292 11.2783Z" fill="#435FB5"/>
<path d="M34.9114 14.8652H29.5308C28.3659 14.822 28.3668 13.1502 29.5308 13.1074H34.9114C36.0763 13.1507 36.0754 14.8224 34.9114 14.8652Z" fill="#435FB5"/>
</g>
</g>
<defs>
<clipPath id="clip0_766_419">
<rect width="45" height="45" fill="white"/>
</clipPath>
</defs>
</svg>
