<svg
  xmlns="http://www.w3.org/2000/svg"
  width="40"
  height="40"
  viewBox="0 0 40 40"
  fill="none">
  <rect
    width="40"
    height="40"
    rx="5"
    fill="#0FBDF4" />
  <path
    d="M27.5418 14.4948C27.9299 14.2942 28.8594 13.6984 29.2975 12.4195C29.2975 12.4195 28.2417 13.1834 26.8047 13.2734L26.7786 13.2878C26.4021 12.8756 25.9437 12.5464 25.4328 12.3215C24.9219 12.0965 24.3697 11.9807 23.8115 11.9814C21.5883 11.9814 19.7863 13.7848 19.7863 16.0092C19.7863 16.3467 19.8282 16.6745 19.9068 16.9878L19.8873 16.9587C19.8873 16.9587 15.5759 17.2059 11.5113 12.7567C11.5113 12.7567 9.71431 15.8126 12.7911 18.1495C12.1174 18.2617 10.9275 17.6551 10.9275 17.6551C10.9275 17.6551 10.9947 20.8678 14.1834 21.6545C13.667 21.7895 12.7012 21.8339 12.3869 21.6995C12.3869 21.6995 12.8583 24.1484 16.1148 24.5756C15.2839 25.0476 13.7345 26.4853 10.231 26.2156C10.231 26.2156 12.7467 28.2826 17.4176 27.9909C22.0886 27.6992 25.4797 24.5528 26.8494 21.2276C28.2192 17.9023 27.838 16.0089 27.838 16.0089C27.838 16.0089 28.9826 15.4078 29.7694 13.9701C29.406 14.0789 28.0582 14.4084 27.5565 14.5303C27.5515 14.5186 27.5466 14.5067 27.5418 14.4948Z"
    fill="white" />
</svg>
