<svg width="120" height="96" viewBox="0 0 120 96" fill="none" xmlns="http://www.w3.org/2000/svg">
<path opacity="0.31" d="M105.872 74.2085C105.68 74.211 104.492 72.624 104.265 72.4043C102.406 70.6052 101.29 68.6284 100.452 66.4779C99.8133 64.8385 99.3366 63.0969 98.8166 61.2595C98.4652 60.0201 97.8991 58.6349 96.6725 58.2439C95.479 57.8644 94.1936 58.6515 93.4601 59.6661C92.7254 60.6807 92.3561 61.9112 91.7288 62.9947C90.5903 64.9587 88.5752 65.7816 86.909 64.0553C84.5298 61.5892 83.4577 58.226 81.9486 55.2182C80.8536 53.0344 79.9361 50.4776 78.5561 48.4638C76.4516 45.3946 73.5651 42.7764 69.728 42.7764C67.2951 43.1444 65.1523 45.3001 63.7007 47.9923C62.2504 50.6846 61.4033 53.888 60.6826 57.0824C60.0782 59.7619 59.5479 62.4708 59.0573 65.1938C58.1449 61.9124 57.1955 58.6554 56.1682 55.4546C55.0553 51.9879 53.826 48.5341 52.1189 45.76C50.4118 42.986 48.1514 40.9403 45.8821 40.9543C42.3848 41.6315 40.1283 45.0841 38.6486 48.9098C37.6788 51.418 37.2085 54.4566 36.5211 57.1067C35.5755 60.7573 35.0798 64.7287 33.2628 67.9244C31.9914 70.1605 30.0364 69.5906 28.719 67.5807C27.9919 66.4715 27.4795 65.1529 26.6656 64.1409C25.8516 63.1289 24.5675 62.4695 23.535 63.1072C22.4732 63.7627 22.155 65.4225 22.0119 66.8779C21.7998 69.0386 21.6145 71.0805 21.2657 73.0381C21.1903 73.4648 21.106 73.8865 21.0127 74.3043H57.5265C57.5009 74.4602 57.4754 74.6174 57.4511 74.7733L105.872 74.2085Z" fill="#DCE6EF"/>
<path opacity="0.77" d="M91.2624 69.2456C91.1678 71.1278 89.1195 74.4181 87.2374 74.3235C85.3552 74.229 84.3509 70.7841 84.4467 68.9019C84.5413 67.0197 86.5461 57.6 88.4283 57.6958C90.3092 57.7903 91.3569 67.3635 91.2624 69.2456Z" fill="#435FB5"/>
<path d="M87.3876 74.2225H87.385C87.3785 74.2222 87.3722 74.2205 87.3663 74.2177C87.3605 74.2148 87.3553 74.2109 87.351 74.206C87.3467 74.2011 87.3435 74.1954 87.3414 74.1893C87.3393 74.1831 87.3385 74.1766 87.339 74.1702L88.2884 58.916C88.2897 58.8892 88.3114 58.8662 88.3408 58.87C88.3676 58.8713 88.3893 58.8956 88.3868 58.9224L87.4374 74.1765C87.4361 74.189 87.4304 74.2005 87.4212 74.209C87.412 74.2175 87.4 74.2223 87.3876 74.2225Z" fill="#0B4870"/>
<path opacity="0.77" d="M86.9537 68.8533C86.5256 69.7951 86.1985 70.7828 86.0017 71.8127C85.9021 72.334 85.8382 72.9 86.0746 73.3767C86.3327 73.8967 86.9051 74.1996 87.4776 74.2941C88.8767 74.5241 90.2759 73.6667 91.0962 72.5103C91.9166 71.3539 92.2718 69.9394 92.5976 68.5607C92.8545 67.4746 93.1062 66.3719 93.5905 65.3599C93.7975 64.9254 95.0126 63.2503 94.4376 62.8158C93.6518 62.1987 91.3773 62.8695 89.9207 64.4616C88.7196 65.7701 87.6871 67.2433 86.9537 68.8533Z" fill="#435FB5"/>
<path d="M87.4777 74.3427C87.4739 74.3427 87.4701 74.3427 87.465 74.3414C87.4523 74.3381 87.4414 74.33 87.4347 74.3187C87.428 74.3075 87.426 74.2941 87.4292 74.2813C87.4458 74.2149 89.1695 67.6484 93.2111 63.9096C93.2316 63.8917 93.2623 63.8917 93.2814 63.9122C93.3006 63.9326 93.2993 63.9633 93.2789 63.9825C89.2577 67.7008 87.5429 74.2405 87.5263 74.3056C87.5212 74.3286 87.5007 74.3427 87.4777 74.3427Z" fill="#0B4870"/>
<path opacity="0.77" d="M96.8468 67.3034C96.7024 67.5628 96.4316 67.7391 96.1849 67.8771C95.8821 68.0483 95.5588 68.1978 95.2458 68.3435C94.8446 68.5301 94.4306 68.723 94.0472 68.9632C93.7687 69.1383 93.5208 69.3363 93.3125 69.5485C93.6409 68.8022 94.0255 68.1506 94.4778 67.5679C95.0733 66.8012 95.6841 66.4128 96.2961 66.4128C96.3102 66.4128 96.3242 66.4128 96.3383 66.4141C96.5274 66.4192 96.6743 66.4665 96.7753 66.5533C96.9836 66.731 96.9746 67.0734 96.8468 67.3034ZM97.5292 71.5546C97.2877 71.7271 96.9669 71.7705 96.6858 71.791C96.3383 71.8152 95.9818 71.8127 95.638 71.8114C95.1959 71.8088 94.7385 71.805 94.29 71.8587C93.9629 71.8983 93.6537 71.9711 93.3751 72.0733C93.991 71.5392 94.6171 71.1137 95.2752 70.7815C96.1415 70.3432 96.8596 70.2538 97.4129 70.5157L97.4512 70.5349C97.6199 70.6205 97.7323 70.7253 97.7873 70.848C97.8972 71.0958 97.7426 71.4025 97.5292 71.5546Z" fill="#435FB5"/>
<path opacity="0.77" d="M95.9193 73.6476C95.7187 73.6194 95.5385 73.4917 95.389 73.369C95.205 73.2182 95.0287 73.0508 94.8587 72.8873C94.6402 72.679 94.4141 72.4631 94.1662 72.2791C93.9847 72.1449 93.7969 72.0363 93.6104 71.9571C94.1675 71.9801 94.6773 72.0618 95.1616 72.205C95.7979 72.3928 96.1966 72.6854 96.3486 73.0738C96.3525 73.0828 96.355 73.0917 96.3589 73.1007C96.4023 73.2221 96.4087 73.3268 96.3793 73.4137C96.318 73.5913 96.0969 73.6718 95.9193 73.6476Z" fill="#435FB5"/>
<path d="M91.3399 74.381C91.3143 74.3784 91.29 74.3593 91.29 74.3312C91.29 74.2903 91.3654 70.2423 96.244 66.8498C96.267 66.8344 96.2977 66.8395 96.313 66.8625C96.3283 66.8855 96.3232 66.9162 96.3002 66.9315C91.4638 70.2947 91.3884 74.2915 91.3884 74.3312C91.3897 74.358 91.368 74.381 91.3399 74.381Z" fill="#0B4870"/>
<path d="M91.3399 74.381C91.3322 74.381 91.3258 74.3797 91.3181 74.3759C91.3121 74.3732 91.3068 74.3693 91.3023 74.3644C91.2978 74.3596 91.2943 74.3539 91.2921 74.3478C91.2898 74.3416 91.2888 74.335 91.2891 74.3284C91.2894 74.3218 91.291 74.3154 91.2939 74.3094C91.3092 74.2775 92.863 71.0486 96.9378 71.0486C96.9659 71.0486 96.9876 71.0703 96.9876 71.0984C96.9876 71.1265 96.9659 71.1482 96.9378 71.1482C92.9282 71.1482 91.3986 74.3197 91.3846 74.3516C91.3769 74.3695 91.359 74.381 91.3399 74.381Z" fill="#0B4870"/>
<path d="M96.0112 73.2374C96.0006 73.2371 95.9903 73.2336 95.9818 73.2272C94.3692 72.0107 93.5757 72.0465 93.5693 72.0478C93.5412 72.0503 93.5182 72.0286 93.5157 72.0018C93.5144 71.975 93.5348 71.9507 93.5617 71.9481C93.5949 71.9443 94.391 71.9034 96.0419 73.148C96.0636 73.1646 96.0687 73.1952 96.0521 73.2182C96.0419 73.2297 96.0265 73.2374 96.0112 73.2374Z" fill="#0B4870"/>
<path d="M33.5951 68.4393C32.886 67.6203 31.9877 66.9149 31.704 65.8812C31.497 65.126 31.6606 64.3274 31.7411 63.5493C31.8216 62.7711 31.7935 61.9099 31.29 61.3119C30.8747 60.8187 30.2192 60.604 29.5893 60.4685C28.9594 60.3331 28.3013 60.2475 27.7416 59.9268C26.8331 59.4054 27.0146 58.5199 26.5265 57.743C25.9796 56.8716 24.7056 55.7587 23.6144 56.3375C22.4593 56.9508 22.642 58.8125 23.41 59.6342C23.9198 60.1798 24.5727 60.7024 24.6481 61.446C24.7606 62.5641 23.4802 63.571 23.8316 64.6392C24.0923 65.4276 25.0851 65.6985 25.5771 66.368C26.0626 67.0312 25.9642 67.9589 25.6793 68.7294C25.3931 69.4999 24.9433 70.2116 24.7657 71.0128C24.4015 72.6534 25.6895 73.7868 27.1564 74.1535C28.5045 74.4896 31.4114 74.3312 31.4114 74.3312C32.449 73.9683 33.599 73.0572 34.1701 72.0605C34.6007 71.3079 34.6608 70.3547 34.3273 69.5535C34.1548 69.1421 33.8916 68.7805 33.5951 68.4393Z" fill="#435FB5"/>
<path d="M30.4103 74.3388C30.3847 74.3388 30.3617 74.3184 30.3604 74.2916C29.8276 65.8876 24.9146 58.2107 24.8647 58.1341C24.861 58.1286 24.8585 58.1224 24.8573 58.1159C24.8561 58.1094 24.8562 58.1027 24.8576 58.0963C24.859 58.0898 24.8618 58.0837 24.8656 58.0784C24.8695 58.073 24.8744 58.0685 24.8801 58.0651C24.9031 58.0497 24.9337 58.0561 24.9491 58.0804C24.9989 58.1571 29.926 65.8569 30.4614 74.2852C30.4627 74.312 30.4422 74.3363 30.4154 74.3376C30.4128 74.3388 30.4116 74.3388 30.4103 74.3388Z" fill="#0B4870"/>
<path d="M20.4857 68.4496C20.5624 68.3844 20.6735 68.3486 20.8166 68.3448H20.8486C21.3099 68.3448 21.7724 68.6387 22.2235 69.2175C22.5659 69.6583 22.856 70.1516 23.1039 70.7151C22.9467 70.5541 22.7589 70.4046 22.548 70.273C22.2592 70.0915 21.9449 69.9458 21.6421 69.804C21.4057 69.6941 21.1616 69.5804 20.9329 69.4513C20.7464 69.3466 20.5419 69.2124 20.432 69.0169C20.3349 68.8431 20.3285 68.5837 20.4857 68.4496ZM19.7216 71.6964C19.7625 71.6044 19.8481 71.5252 19.9759 71.46C19.9848 71.4549 19.995 71.4511 20.004 71.446C20.4218 71.2479 20.9649 71.3156 21.6204 71.6466C22.1187 71.8983 22.5915 72.2203 23.0579 72.6241C22.847 72.5461 22.6132 72.4912 22.3666 72.4618C22.0267 72.4209 21.6817 72.4235 21.3469 72.426C21.0862 72.4273 20.8166 72.4298 20.5547 72.4107C20.3413 72.3953 20.0998 72.3621 19.9171 72.2318C19.7535 72.1168 19.6372 71.8842 19.7216 71.6964Z" fill="#435FB5"/>
<path d="M20.7846 73.6386C20.7616 73.5734 20.7667 73.4942 20.8 73.4022C20.8025 73.3958 20.8051 73.3882 20.8076 73.3818C20.9226 73.0879 21.2242 72.8668 21.7059 72.725C22.0713 72.6164 22.4572 72.5551 22.8789 72.5372C22.7371 72.5972 22.5952 72.679 22.4585 72.7812C22.2707 72.9205 22.0995 73.0828 21.9346 73.2412C21.8056 73.3639 21.6727 73.4917 21.5334 73.6054C21.421 73.6974 21.2842 73.7945 21.1322 73.8162C20.998 73.8328 20.8319 73.7715 20.7846 73.6386Z" fill="#435FB5"/>
<path d="M24.5949 74.381C24.5817 74.381 24.569 74.3757 24.5596 74.3664C24.5503 74.3571 24.5451 74.3444 24.5451 74.3312C24.5451 74.3005 24.485 71.2824 20.8369 68.746C20.8261 68.7385 20.8187 68.7271 20.8163 68.7141C20.8139 68.7012 20.8167 68.6878 20.8242 68.677C20.8316 68.6662 20.8431 68.6587 20.856 68.6563C20.869 68.6539 20.8823 68.6568 20.8932 68.6642C24.5872 71.2326 24.6447 74.3005 24.6447 74.3312C24.646 74.358 24.623 74.381 24.5949 74.381C24.5962 74.381 24.5962 74.381 24.5949 74.381Z" fill="#0B4870"/>
<path d="M24.5966 74.381C24.5774 74.381 24.5595 74.3708 24.5519 74.3529C24.5404 74.3286 23.3865 71.9379 20.3633 71.9379C20.3352 71.9379 20.3135 71.9162 20.3135 71.8881C20.3135 71.86 20.3352 71.8382 20.3633 71.8382C23.4517 71.8382 24.6298 74.2864 24.6413 74.3107C24.6528 74.3363 24.6426 74.3657 24.617 74.3772C24.6106 74.3784 24.603 74.381 24.5966 74.381Z" fill="#0B4870"/>
<path d="M21.0635 73.516C21.0557 73.5161 21.048 73.5143 21.0411 73.5107C21.0342 73.5071 21.0283 73.5019 21.0239 73.4955C21.0073 73.4738 21.0111 73.4418 21.0341 73.4252C22.285 72.4809 22.892 72.5142 22.9175 72.5154C22.9444 72.518 22.9661 72.541 22.9635 72.5691C22.961 72.596 22.938 72.619 22.9099 72.6151C22.9035 72.6151 22.308 72.5896 21.0942 73.5044C21.0839 73.5134 21.0737 73.516 21.0635 73.516Z" fill="#0B4870"/>
<path d="M73.8971 72.2727H38.863C38.0913 72.2727 37.4639 71.6453 37.4639 70.8735V23.7235C37.4639 22.9517 38.0913 22.3243 38.863 22.3243H49.3344V22.7077H38.863C38.3034 22.7077 37.8472 23.1638 37.8472 23.7235V70.8735C37.8472 71.4332 38.3034 71.8893 38.863 71.8893H73.8971C74.4568 71.8893 74.913 71.4332 74.913 70.8735V23.7235C74.913 23.1638 74.4568 22.7077 73.8971 22.7077H63.4283V22.3243H73.8971C74.6689 22.3243 75.2963 22.9517 75.2963 23.7235V70.8735C75.2963 71.644 74.6689 72.2727 73.8971 72.2727Z" fill="#435FB5"/>
<path d="M72.4358 69.7938H40.3253C40.0531 69.7938 39.832 69.5727 39.832 69.3006V25.2964C39.832 25.0243 40.0531 24.8032 40.3253 24.8032H72.4358C72.708 24.8032 72.929 25.0243 72.929 25.2964V69.3006C72.929 69.5727 72.708 69.7938 72.4358 69.7938Z" fill="#F2F2F2"/>
<path d="M63.5947 26.1091H49.166V21.3877H53.3431C53.3712 19.7368 54.7231 18.4016 56.3804 18.4016C58.0376 18.4016 59.3895 19.7368 59.4176 21.3877H63.5947V26.1091ZM49.5493 25.7258H63.2114V21.7711H59.0177L59.0305 21.5181C59.0317 21.4925 59.0343 21.4657 59.0343 21.4388C59.0343 19.9758 57.8434 18.7849 56.3804 18.7849C54.9173 18.7849 53.7264 19.9758 53.7264 21.4388C53.7264 21.4657 53.729 21.4925 53.7302 21.5181L53.743 21.7711H49.5493V25.7258Z" fill="#435FB5"/>
<path d="M56.38 23.229C55.3936 23.229 54.5898 22.4266 54.5898 21.4388C54.5898 20.4511 55.3923 19.6487 56.38 19.6487C57.3677 19.6487 58.1702 20.4511 58.1702 21.4388C58.1702 22.4266 57.3665 23.229 56.38 23.229ZM56.38 20.0333C55.6044 20.0333 54.9732 20.6645 54.9732 21.4401C54.9732 22.2157 55.6044 22.847 56.38 22.847C57.1556 22.847 57.7868 22.2157 57.7868 21.4401C57.7868 20.6645 57.1556 20.0333 56.38 20.0333Z" fill="#435FB5"/>
<path d="M106.766 79.671H13.2331C11.7509 79.671 10.5498 78.4699 10.5498 76.9877C10.5498 75.5054 11.7509 74.3043 13.2331 74.3043H106.766C108.249 74.3043 109.45 75.5054 109.45 76.9877C109.45 78.4699 108.249 79.671 106.766 79.671Z" fill="#D3D3D3"/>
<path d="M49.5328 37.2935H44.0039V31.7646H49.5328V37.2935ZM44.1317 37.1657H49.4051V31.8923H44.1317V37.1657Z" fill="#0B4870"/>
<path d="M46.9505 36.0745L45.1232 34.6396L45.4389 34.2383L46.916 35.3973L50.1142 32.3166L50.4682 32.6846L46.9505 36.0745ZM69.6604 33.3618H52.0616C52.0063 33.3618 51.9534 33.3398 51.9143 33.3008C51.8752 33.2617 51.8533 33.2087 51.8533 33.1535C51.8533 33.0983 51.8752 33.0453 51.9143 33.0062C51.9534 32.9672 52.0063 32.9452 52.0616 32.9452H69.6604C69.7156 32.9452 69.7686 32.9672 69.8077 33.0062C69.8467 33.0453 69.8687 33.0983 69.8687 33.1535C69.8687 33.2087 69.8467 33.2617 69.8077 33.3008C69.7686 33.3398 69.7156 33.3618 69.6604 33.3618ZM69.6604 34.2792H52.0616C52.0063 34.2792 51.9534 34.2573 51.9143 34.2182C51.8752 34.1792 51.8533 34.1262 51.8533 34.0709C51.8533 34.0157 51.8752 33.9627 51.9143 33.9237C51.9534 33.8846 52.0063 33.8627 52.0616 33.8627H69.6604C69.7156 33.8627 69.7686 33.8846 69.8077 33.9237C69.8467 33.9627 69.8687 34.0157 69.8687 34.0709C69.8687 34.1262 69.8467 34.1792 69.8077 34.2182C69.7686 34.2573 69.7156 34.2792 69.6604 34.2792ZM69.6604 35.1954H52.0616C52.0063 35.1954 51.9534 35.1734 51.9143 35.1344C51.8752 35.0953 51.8533 35.0424 51.8533 34.9871C51.8533 34.9319 51.8752 34.8789 51.9143 34.8398C51.9534 34.8008 52.0063 34.7788 52.0616 34.7788H69.6604C69.7156 34.7788 69.7686 34.8008 69.8077 34.8398C69.8467 34.8789 69.8687 34.9319 69.8687 34.9871C69.8687 35.0424 69.8467 35.0953 69.8077 35.1344C69.7686 35.1734 69.7156 35.1954 69.6604 35.1954ZM69.6604 36.1128H52.0616C52.0063 36.1128 51.9534 36.0909 51.9143 36.0518C51.8752 36.0128 51.8533 35.9598 51.8533 35.9046C51.8533 35.8493 51.8752 35.7963 51.9143 35.7573C51.9534 35.7182 52.0063 35.6963 52.0616 35.6963H69.6604C69.7156 35.6963 69.7686 35.7182 69.8077 35.7573C69.8467 35.7963 69.8687 35.8493 69.8687 35.9046C69.8687 35.9598 69.8467 36.0128 69.8077 36.0518C69.7686 36.0909 69.7156 36.1128 69.6604 36.1128ZM49.5328 45.9888H44.0039V40.4598H49.5328V45.9888ZM44.1317 45.861H49.4051V40.5876H44.1317V45.861Z" fill="#0B4870"/>
<path d="M46.9505 44.7698L45.1232 43.3348L45.4389 42.9336L46.916 44.0926L50.1142 41.0118L50.4682 41.3798L46.9505 44.7698ZM69.6604 42.0571H52.0616C52.0063 42.0571 51.9534 42.0351 51.9143 41.9961C51.8752 41.957 51.8533 41.904 51.8533 41.8488C51.8533 41.7935 51.8752 41.7406 51.9143 41.7015C51.9534 41.6625 52.0063 41.6405 52.0616 41.6405H69.6604C69.7156 41.6405 69.7686 41.6625 69.8077 41.7015C69.8467 41.7406 69.8687 41.7935 69.8687 41.8488C69.8687 41.904 69.8467 41.957 69.8077 41.9961C69.7686 42.0351 69.7156 42.0571 69.6604 42.0571ZM69.6604 42.9745H52.0616C52.0063 42.9745 51.9534 42.9526 51.9143 42.9135C51.8752 42.8744 51.8533 42.8215 51.8533 42.7662C51.8533 42.711 51.8752 42.658 51.9143 42.619C51.9534 42.5799 52.0063 42.558 52.0616 42.558H69.6604C69.7156 42.558 69.7686 42.5799 69.8077 42.619C69.8467 42.658 69.8687 42.711 69.8687 42.7662C69.8687 42.8215 69.8467 42.8744 69.8077 42.9135C69.7686 42.9526 69.7156 42.9745 69.6604 42.9745ZM69.6604 43.8907H52.0616C52.0063 43.8907 51.9534 43.8687 51.9143 43.8297C51.8752 43.7906 51.8533 43.7376 51.8533 43.6824C51.8533 43.6272 51.8752 43.5742 51.9143 43.5351C51.9534 43.4961 52.0063 43.4741 52.0616 43.4741H69.6604C69.7156 43.4741 69.7686 43.4961 69.8077 43.5351C69.8467 43.5742 69.8687 43.6272 69.8687 43.6824C69.8687 43.7376 69.8467 43.7906 69.8077 43.8297C69.7686 43.8687 69.7156 43.8907 69.6604 43.8907ZM69.6604 44.8081H52.0616C52.0063 44.8081 51.9534 44.7862 51.9143 44.7471C51.8752 44.7081 51.8533 44.6551 51.8533 44.5998C51.8533 44.5446 51.8752 44.4916 51.9143 44.4526C51.9534 44.4135 52.0063 44.3916 52.0616 44.3916H69.6604C69.7156 44.3916 69.7686 44.4135 69.8077 44.4526C69.8467 44.4916 69.8687 44.5446 69.8687 44.5998C69.8687 44.6551 69.8467 44.7081 69.8077 44.7471C69.7686 44.7862 69.7156 44.8081 69.6604 44.8081ZM49.5328 54.6841H44.0039V49.1551H49.5328V54.6841ZM44.1317 54.5563H49.4051V49.2829H44.1317V54.5563Z" fill="#0B4870"/>
<path d="M46.9505 53.465L45.1232 52.0301L45.4389 51.6289L46.916 52.7878L50.1142 49.7071L50.4682 50.0751L46.9505 53.465ZM69.6604 50.7523H52.0616C52.0063 50.7523 51.9534 50.7304 51.9143 50.6913C51.8752 50.6523 51.8533 50.5993 51.8533 50.544C51.8533 50.4888 51.8752 50.4358 51.9143 50.3968C51.9534 50.3577 52.0063 50.3358 52.0616 50.3358H69.6604C69.7156 50.3358 69.7686 50.3577 69.8077 50.3968C69.8467 50.4358 69.8687 50.4888 69.8687 50.544C69.8687 50.5993 69.8467 50.6523 69.8077 50.6913C69.7686 50.7304 69.7156 50.7523 69.6604 50.7523ZM69.6604 51.6698H52.0616C52.0063 51.6698 51.9534 51.6478 51.9143 51.6088C51.8752 51.5697 51.8533 51.5167 51.8533 51.4615C51.8533 51.4062 51.8752 51.3533 51.9143 51.3142C51.9534 51.2752 52.0063 51.2532 52.0616 51.2532H69.6604C69.7156 51.2532 69.7686 51.2752 69.8077 51.3142C69.8467 51.3533 69.8687 51.4062 69.8687 51.4615C69.8687 51.5167 69.8467 51.5697 69.8077 51.6088C69.7686 51.6478 69.7156 51.6698 69.6604 51.6698ZM69.6604 52.5859H52.0616C52.0063 52.5859 51.9534 52.564 51.9143 52.5249C51.8752 52.4859 51.8533 52.4329 51.8533 52.3777C51.8533 52.3224 51.8752 52.2694 51.9143 52.2304C51.9534 52.1913 52.0063 52.1694 52.0616 52.1694H69.6604C69.7156 52.1694 69.7686 52.1913 69.8077 52.2304C69.8467 52.2694 69.8687 52.3224 69.8687 52.3777C69.8687 52.4329 69.8467 52.4859 69.8077 52.5249C69.7686 52.564 69.7156 52.5859 69.6604 52.5859ZM69.6604 53.5034H52.0616C52.0063 53.5034 51.9534 53.4814 51.9143 53.4424C51.8752 53.4033 51.8533 53.3503 51.8533 53.2951C51.8533 53.2399 51.8752 53.1869 51.9143 53.1478C51.9534 53.1088 52.0063 53.0868 52.0616 53.0868H69.6604C69.7156 53.0868 69.7686 53.1088 69.8077 53.1478C69.8467 53.1869 69.8687 53.2399 69.8687 53.2951C69.8687 53.3503 69.8467 53.4033 69.8077 53.4424C69.7686 53.4814 69.7156 53.5034 69.6604 53.5034ZM49.5328 63.3793H44.0039V57.8504H49.5328V63.3793ZM44.1317 63.2515H49.4051V57.9782H44.1317V63.2515Z" fill="#0B4870"/>
<path d="M46.9503 62.1604L45.123 60.7254L45.4387 60.3242L46.9158 61.4831L50.114 58.4024L50.468 58.7704L46.9503 62.1604ZM69.6602 59.4476H52.0614C52.0061 59.4476 51.9532 59.4257 51.9141 59.3866C51.875 59.3476 51.8531 59.2946 51.8531 59.2394C51.8531 59.1841 51.875 59.1311 51.9141 59.0921C51.9532 59.053 52.0061 59.0311 52.0614 59.0311H69.6602C69.7155 59.0311 69.7684 59.053 69.8075 59.0921C69.8465 59.1311 69.8685 59.1841 69.8685 59.2394C69.8685 59.2946 69.8465 59.3476 69.8075 59.3866C69.7684 59.4257 69.7155 59.4476 69.6602 59.4476ZM69.6602 60.3651H52.0614C52.0061 60.3651 51.9532 60.3431 51.9141 60.3041C51.875 60.265 51.8531 60.212 51.8531 60.1568C51.8531 60.1016 51.875 60.0486 51.9141 60.0095C51.9532 59.9705 52.0061 59.9485 52.0614 59.9485H69.6602C69.7155 59.9485 69.7684 59.9705 69.8075 60.0095C69.8465 60.0486 69.8685 60.1016 69.8685 60.1568C69.8685 60.212 69.8465 60.265 69.8075 60.3041C69.7684 60.3431 69.7155 60.3651 69.6602 60.3651ZM69.6602 61.2812H52.0614C52.0061 61.2812 51.9532 61.2593 51.9141 61.2202C51.875 61.1812 51.8531 61.1282 51.8531 61.073C51.8531 61.0177 51.875 60.9647 51.9141 60.9257C51.9532 60.8866 52.0061 60.8647 52.0614 60.8647H69.6602C69.7155 60.8647 69.7684 60.8866 69.8075 60.9257C69.8465 60.9647 69.8685 61.0177 69.8685 61.073C69.8685 61.1282 69.8465 61.1812 69.8075 61.2202C69.7684 61.2593 69.7155 61.2812 69.6602 61.2812ZM69.6602 62.1987H52.0614C52.0061 62.1987 51.9532 62.1767 51.9141 62.1377C51.875 62.0986 51.8531 62.0456 51.8531 61.9904C51.8531 61.9352 51.875 61.8822 51.9141 61.8431C51.9532 61.8041 52.0061 61.7821 52.0614 61.7821H69.6602C69.7155 61.7821 69.7684 61.8041 69.8075 61.8431C69.8465 61.8822 69.8685 61.9352 69.8685 61.9904C69.8685 62.0456 69.8465 62.0986 69.8075 62.1377C69.7684 62.1767 69.7155 62.1987 69.6602 62.1987Z" fill="#0B4870"/>
<path d="M70.5502 53.2798C70.8364 53.0766 71.0996 52.8415 71.221 52.7725C71.2721 52.7444 71.4306 52.7086 71.4753 52.6945C71.6082 52.6549 71.8203 52.614 71.9123 52.5105L72.3059 52.0787C72.4924 51.8665 72.7365 51.7963 72.9473 51.9828C73.176 52.1847 73.1083 52.4722 72.8809 52.6767L72.6113 52.9833C72.4298 53.1469 72.3391 53.3769 72.2381 53.5992C72.0337 54.0528 71.5699 54.394 71.1738 54.6329C70.9246 54.7824 70.5476 54.6764 70.0531 54.5077C69.8104 54.4247 69.459 54.2241 69.7618 54.1103C70.0161 54.0158 70.7802 54.2215 71.1175 53.5174C71.1341 53.4829 71.1699 53.3909 71.1354 53.359C71.0332 53.2632 70.807 53.4804 70.6563 53.5494C70.4441 53.6465 70.2742 53.6133 70.2218 53.5353C70.1656 53.4536 70.3458 53.4254 70.5502 53.2798Z" fill="#FAB9AF"/>
<path d="M81.3042 37.8327C81.3042 37.8327 80.673 45.4099 78.4075 47.9668C77.0428 49.5078 73.704 52.1502 72.9309 52.7559C72.8325 52.8325 72.6945 52.8364 72.5923 52.7648C72.5271 52.7188 72.453 52.6626 72.3891 52.6064C72.324 52.5489 72.2486 52.4658 72.1808 52.3866C72.0684 52.255 72.0735 52.0595 72.1911 51.933C73.0574 50.9913 76.4563 47.2589 76.8703 46.2776C77.3443 45.1518 78.1608 38.5061 78.9109 37.5439C79.661 36.5792 81.0985 36.3709 81.3042 37.8327Z" fill="#435FB5"/>
<path d="M78.4434 50.3498L80.3754 36.7798L85.5849 36.0643L88.295 50.2527L78.4434 50.3498ZM82.4709 71.3782L82.4658 72.9077C82.4645 73.2195 82.5067 73.5287 82.591 73.8277L82.7239 74.2992C82.8325 74.6864 82.5425 75.0697 82.14 75.0684C81.0986 75.0646 79.3174 75.0672 78.8586 75.0684C78.7832 75.0684 78.7104 75.0173 78.704 74.9432C78.6657 74.4973 79.955 74.197 80.9274 73.8213C81.6672 73.5351 81.6276 72.2049 81.5369 71.428C81.5024 71.1342 81.7477 70.885 82.0416 70.9093C82.2844 70.9297 82.4722 71.1342 82.4709 71.3782ZM89.6316 70.9489L90.158 72.6982C90.181 72.7761 90.2155 72.8489 90.2615 72.9154L90.6346 73.4699C90.8723 73.8226 90.7011 74.303 90.2947 74.427C90.2947 74.427 89.5409 74.6915 88.7652 74.947C87.9705 75.2077 86.97 74.9905 86.97 74.7797C86.97 74.3133 87.4044 74.6838 88.1327 74.197C88.3768 74.0334 88.6285 73.8635 88.8534 73.6872C89.4795 73.1952 88.9326 71.9507 88.5493 71.2492C88.4113 70.9974 88.5582 70.6844 88.8394 70.6243L89.0208 70.586C89.2866 70.531 89.5524 70.6882 89.6316 70.9489Z" fill="#FAB9AF"/>
<path d="M84.248 50.4814L78.4737 49.9972C78.4737 49.9972 77.8923 54.1998 79.3515 61.8064C80.0364 65.3739 81.4624 72.1909 81.4624 72.1909C81.8164 72.3455 82.1754 72.3838 82.5409 72.2931C82.5409 72.2931 82.6495 69.2865 82.7159 66.0473C82.7798 62.9423 82.7964 59.6239 82.9945 58.5378C83.3983 56.3196 84.248 50.4814 84.248 50.4814Z" fill="#0B4870"/>
<path d="M83.0565 50.5543C82.4598 53.7538 81.1283 58.5378 83.6941 63.0318C86.2586 67.5257 88.9534 72.1986 88.9534 72.1986C89.301 72.2126 89.6153 72.0874 89.9079 71.8651C89.9079 71.8651 89.4582 69.8283 88.8078 67.4491C88.0641 64.7274 87.1224 61.5266 87.3907 59.8578C87.8942 56.7298 88.4717 52.5642 88.2967 50.5402C88.1203 48.5162 83.3696 48.8727 83.0565 50.5543Z" fill="#0B4870"/>
<path d="M78.2441 50.0048L80.3755 36.7798L85.5862 36.0643L88.3858 50.0291C88.3985 50.0914 88.3986 50.1556 88.3862 50.2179C88.3739 50.2802 88.3493 50.3395 88.3139 50.3923C88.2785 50.445 88.2329 50.4902 88.1799 50.5253C88.1269 50.5603 88.0675 50.5845 88.0051 50.5964C87.0352 50.7804 84.6956 51.1638 82.0762 51.1638C80.1212 51.1638 79.0223 50.7843 78.5227 50.5428C78.4244 50.4952 78.3441 50.4171 78.2939 50.3201C78.2437 50.2232 78.2263 50.1125 78.2441 50.0048Z" fill="#F2F2F2"/>
<path d="M88.5569 55.1236C88.6361 54.7824 88.6796 54.431 88.7243 54.2994C88.7435 54.2445 88.8393 54.1129 88.8636 54.072C88.9377 53.9544 89.0693 53.7832 89.0693 53.6452L89.0795 53.0613C89.0795 52.7789 89.2162 52.5655 89.4973 52.5655C89.8027 52.5655 89.942 52.8262 89.9062 53.1303V53.5392C89.8781 53.7819 89.9625 54.0145 90.034 54.2483C90.1797 54.7237 90.0583 55.2859 89.919 55.728C89.8321 56.0053 89.4782 56.1752 88.9965 56.3745C88.7601 56.4729 88.3627 56.5547 88.5147 56.2698C88.6425 56.0308 89.3517 55.6807 89.1396 54.9281C89.1293 54.891 89.0961 54.7978 89.0488 54.7965C88.9083 54.7927 88.8827 55.1044 88.815 55.2565C88.7205 55.4699 88.571 55.5568 88.479 55.5338C88.3831 55.5082 88.4994 55.3677 88.5569 55.1236Z" fill="#FAB9AF"/>
<path d="M83.958 36.8884C83.958 37.8417 84.1318 38.7847 84.4563 39.6804C85.0927 41.4322 86.0484 44.7442 85.4798 47.6626C84.6633 51.8653 83.6117 53.5634 84.9738 54.5435C86.336 55.5223 88.9477 53.8893 89.0231 53.3437C89.0985 52.7993 88.5146 46.1076 87.854 43.2083C87.1921 40.309 85.3393 36.1409 85.3393 36.1409L84.5547 36.2253C84.3909 36.2425 84.2392 36.3198 84.129 36.4422C84.0188 36.5647 83.9579 36.7237 83.958 36.8884Z" fill="#435FB5"/>
<path d="M86.4061 36.4246C86.4061 36.4246 90.9447 42.526 90.9358 45.9415C90.9307 48 90.1742 52.1898 89.9954 53.1558C89.9724 53.2785 89.8727 53.3731 89.7475 53.3858C89.6682 53.3948 89.575 53.4012 89.4906 53.4012C89.405 53.4012 89.2926 53.3884 89.1891 53.3743C89.1062 53.3623 89.0307 53.3202 88.9767 53.2562C88.9228 53.1921 88.8942 53.1105 88.8965 53.0268C88.9233 51.7477 89.0051 46.7005 88.6652 45.6898C88.2755 44.5308 84.4932 39.0083 84.4191 37.7893C84.3437 36.5716 85.2855 35.4637 86.4061 36.4246ZM81.7882 36.5856C81.7882 36.5856 80.8848 38.5381 81.1991 41.3441C81.5147 44.1501 82.2444 52.6946 79.6914 53.9851C78.8825 54.394 77.0361 52.5847 77.0361 51.9126C77.0361 51.2405 77.652 48.9941 78.236 46.951C78.8199 44.9078 80.2267 36.799 80.2267 36.799L81.7882 36.5856Z" fill="#435FB5"/>
<path d="M82.5156 30.5328C83.6784 30.5328 84.1128 31.3608 84.1345 32.8916C84.1435 33.4653 83.8854 34.0326 83.6771 34.3955C83.5225 34.6651 83.4803 34.9846 83.5685 35.2823L83.824 36.1461C83.9978 36.9472 83.617 37.3881 83.0548 37.5478C82.7763 37.627 82.4428 37.5657 82.2 37.4085C81.9112 37.2219 81.8869 36.8194 81.9406 36.4796L82.007 36.2329C82.0965 35.9007 81.9035 35.5429 81.5675 35.4701C80.6718 35.2746 80.544 34.3406 80.3038 32.8916C80.0533 31.3812 81.3528 30.5328 82.5156 30.5328Z" fill="#FAB9AF"/>
<path d="M79.8077 29.8607L80.4747 30.0638C80.72 30.1379 80.9807 30.1405 81.2273 30.0689L82.5587 29.683C83.365 29.683 84.6977 30.1379 84.5291 31.302L84.3809 32.1249C84.3221 32.4533 84.0474 32.6999 83.7139 32.728C83.6832 32.8417 83.5797 32.9209 83.4621 32.9209C83.3177 32.9209 83.2015 32.8047 83.2015 32.6603C83.2015 32.2884 82.9408 31.9728 82.5792 31.891C82.1345 31.7914 81.6605 31.7671 81.1634 31.9013C80.2383 32.1504 79.2621 31.5767 79.1701 30.6222C79.1637 30.5622 79.1611 30.5008 79.1611 30.4382C79.1599 30.0523 79.478 29.7699 79.8077 29.8607Z" fill="#0B4870"/>
<path d="M83.4941 32.9197C83.4941 33.2749 83.6258 33.5624 83.9682 33.5624C84.3106 33.5624 84.5291 33.0743 84.5291 32.7191C84.5291 32.3638 84.3094 32.2769 83.9682 32.2769C83.6258 32.2769 83.4941 32.5657 83.4941 32.9197Z" fill="#FAB9AF"/>
<path d="M83.6351 34.4785C83.6351 34.4785 82.7662 35.672 81.6865 35.511C81.6865 35.511 81.9114 35.6183 81.9651 35.7921C81.9651 35.7921 82.9911 35.7167 83.6351 34.4785Z" fill="#E8948B"/>
<path d="M85.9393 17.8368C85.9393 18.6661 85.3924 19.3395 84.7165 19.3395H70.2176C69.5429 19.3395 68.9947 18.6673 68.9947 17.8368C68.9947 17.0075 69.5416 16.3341 70.2176 16.3341H84.7165C85.3924 16.3354 85.9393 17.0075 85.9393 17.8368ZM34.0398 25.8817C34.0398 26.711 33.3677 27.3843 32.5372 27.3843H14.7224C13.8931 27.3843 13.2197 26.7122 13.2197 25.8817C13.2197 25.0524 13.8918 24.379 14.7224 24.379H32.5384C33.3677 24.379 34.0398 25.0511 34.0398 25.8817ZM41.3232 17.8317C41.3232 18.661 40.7661 19.3343 40.0799 19.3343H25.3382C24.652 19.3343 24.0949 18.6622 24.0949 17.8317C24.0949 17.0024 24.652 16.329 25.3382 16.329H40.0799C40.7661 16.329 41.3232 17.0011 41.3232 17.8317ZM101.812 24.3432C101.812 25.1725 101.14 25.8459 100.309 25.8459H82.4944C81.6652 25.8459 80.9918 25.1738 80.9918 24.3432C80.9918 23.514 81.6639 22.8406 82.4944 22.8406H100.311C101.14 22.8418 101.812 23.514 101.812 24.3432Z" fill="#F2F2F2"/>
<path d="M82.6259 73.9478C82.6259 73.9478 81.8183 74.3043 81.0657 73.7498C81.0657 73.7498 79.2078 74.0475 78.675 74.5969C78.1422 75.1464 78.5281 75.4185 79.1976 75.407C79.8659 75.3955 82.4496 75.3687 82.4496 75.3687C82.4496 75.3687 83.1127 74.9637 82.6259 73.9478ZM90.3897 73.0457C90.3897 73.0457 89.9961 73.5632 89.1144 73.2565C89.1144 73.2565 87.1543 74.1523 86.8081 74.8346C86.4618 75.5169 86.9103 75.6626 87.5466 75.4543C88.183 75.246 90.6414 74.4564 90.6414 74.4564C90.6414 74.4564 91.1551 73.8712 90.3897 73.0457Z" fill="#0B4870"/>
</svg>
